Coordinates
version=1
nRows=13
nColumns=38
inDegrees=no

Units are S.I. units (second, meters, Newtons, ...)
If the header above contains a line with 'inDegrees', this indicates whether rotational values are in degrees (yes) or radians (no).

endheader
time	pelvis_tilt	pelvis_list	pelvis_rotation	pelvis_tx	pelvis_ty	pelvis_tz	hip_flexion_r	hip_adduction_r	hip_rotation_r	knee_angle_r	ankle_angle_r	subtalar_angle_r	mtp_angle_r	hip_flexion_l	hip_adduction_l	hip_rotation_l	knee_angle_l	ankle_angle_l	subtalar_angle_l	mtp_angle_l	lumbar_extension	lumbar_bending	lumbar_rotation	arm_flex_r	arm_add_r	arm_rot_r	elbow_flex_r	pro_sup_r	wrist_flex_r	wrist_dev_r	arm_flex_l	arm_add_l	arm_rot_l	elbow_flex_l	pro_sup_l	wrist_flex_l	wrist_dev_l
5.6	2.63626	1.47899	-2.04504	0.196205	1.83043	0.961009	0.403091	-0.226071	-0.363841	1.00045	0.0718463	0	0	-0.118099	0.002365	-0.266008	0.164699	0.129697	0	0	-0.0914163	-0.0198516	-0.149201	-0.296397	-0.0862885	-0.454555	0.382427	1.5708	0	0	-0.15976	-0.310819	0.0608996	0.636097	0.927636	0	0
5.61	2.59193	1.47954	-2.01296	0.201111	1.83466	0.960692	0.399405	-0.225935	-0.399945	0.964505	0.0785942	0	0	-0.131276	0.0027864	-0.27109	0.159102	0.133674	0	0	-0.0921899	-0.0170425	-0.150345	-0.29571	-0.0846944	-0.459962	0.376879	1.5708	0	0	-0.152265	-0.31453	0.0638025	0.638718	0.926778	0	0
5.62	2.54831	1.48017	-1.98179	0.206092	1.83883	0.960319	0.393987	-0.224189	-0.43718	0.925574	0.0858055	0	0	-0.143667	0.0031381	-0.276843	0.154694	0.138074	0	0	-0.0927547	-0.0139188	-0.150897	-0.295721	-0.0831779	-0.464118	0.37349	1.5708	0	0	-0.144042	-0.317211	0.0669377	0.639764	0.926855	0	0
5.63	2.50495	1.48056	-1.95087	0.21116	1.84283	0.959924	0.386631	-0.221033	-0.47632	0.883723	0.092542	0	0	-0.155476	0.00341767	-0.283184	0.151599	0.142415	0	0	-0.0932064	-0.0108837	-0.151344	-0.295282	-0.0818943	-0.466408	0.370032	1.5708	0	0	-0.135508	-0.319492	0.0712969	0.639898	0.925182	0	0
5.64	2.46202	1.48083	-1.9202	0.216271	1.84663	0.959491	0.377653	-0.216049	-0.517125	0.839073	0.0983787	0	0	-0.166335	0.00346798	-0.290599	0.149993	0.14704	0	0	-0.0932479	-0.00799323	-0.152147	-0.293806	-0.0810565	-0.466946	0.365045	1.5708	0	0	-0.126878	-0.321658	0.0769891	0.638813	0.922162	0	0
5.65	2.42534	1.48124	-1.89565	0.221444	1.85028	0.958955	0.368167	-0.209598	-0.559134	0.792596	0.103295	0	0	-0.175956	0.00376312	-0.298566	0.14975	0.152381	0	0	-0.0927287	-0.00554059	-0.153322	-0.292218	-0.0801162	-0.467114	0.360892	1.5708	0	0	-0.118612	-0.32359	0.0829728	0.637141	0.918719	0	0
5.66	2.3975	1.48225	-1.8803	0.226747	1.8538	0.958245	0.359555	-0.201636	-0.601648	0.745282	0.107108	0	0	-0.184135	0.00455712	-0.307504	0.150503	0.158379	0	0	-0.0913298	-0.00360652	-0.154136	-0.291086	-0.0789689	-0.467759	0.358116	1.5708	0	0	-0.110978	-0.325074	0.088757	0.635588	0.913797	0	0
5.67	2.3784	1.48407	-1.87395	0.232098	1.85713	0.957354	0.352399	-0.192289	-0.642915	0.697775	0.109357	0	0	-0.190439	0.00570076	-0.317394	0.152646	0.164968	0	0	-0.0889232	-0.00215613	-0.154886	-0.289914	-0.0778473	-0.468144	0.356199	1.5708	0	0	-0.103928	-0.326035	0.094162	0.634279	0.906639	0	0
5.68	2.36571	1.48632	-1.87413	0.237537	1.86036	0.956316	0.346567	-0.181885	-0.682636	0.651504	0.109951	0	0	-0.195712	0.00711765	-0.327842	0.155731	0.171851	0	0	-0.0858736	-0.000979716	-0.15541	-0.289511	-0.0769999	-0.466124	0.356197	1.5708	0	0	-0.0972448	-0.326342	0.0992538	0.633045	0.897745	0	0
5.69	2.37734	1.48634	-1.89286	0.242788	1.86306	0.95505	0.350337	-0.161278	-0.698132	0.611898	0.0962165	0	0	-0.204982	0.0110572	-0.330739	0.151088	0.174417	0	0	-0.0850047	-0.00353351	-0.159147	-0.28989	-0.0744884	-0.464023	0.355852	1.5708	0	0	-0.0888768	-0.327573	0.102759	0.630278	0.896472	0	0
5.7	2.38741	1.48849	-1.91749	0.24833	1.86607	0.953791	0.348765	-0.152151	-0.698132	0.573909	0.0877754	0	0	-0.211504	0.0160056	-0.336684	0.150258	0.178497	0	0	-0.0814415	-0.00374471	-0.157956	-0.289075	-0.0738011	-0.462024	0.356161	1.5708	0	0	-0.0822783	-0.326253	0.104823	0.62611	0.896879	0	0
5.71	2.40782	1.49101	-1.952	0.25388	1.86904	0.952394	0.348569	-0.143463	-0.698132	0.538724	0.0782031	0	0	-0.215185	0.0205378	-0.344836	0.153734	0.184382	0	0	-0.0772635	-0.00427002	-0.156921	-0.288652	-0.0732664	-0.459794	0.357582	1.5708	0	0	-0.0764363	-0.324485	0.106836	0.623229	0.896201	0	0
5.72	2.43282	1.4929	-1.99065	0.259516	1.87201	0.950987	0.348232	-0.134821	-0.698132	0.506189	0.0688491	0	0	-0.218449	0.0251342	-0.352748	0.158972	0.190511	0	0	-0.0733285	-0.0049541	-0.156308	-0.288466	-0.0729194	-0.456533	0.359811	1.5708	0	0	-0.0714837	-0.322446	0.109268	0.621647	0.892698	0	0
